<svg width="100" height="100" viewBox="0 0 100 100" fill="none" xmlns="http://www.w3.org/2000/svg">
<path d="M49.6239 11.7061C49.6523 11.7061 49.6771 11.7132 49.6984 11.7263C51.1009 12.6293 52.185 13.3335 52.953 13.8388C53.0205 13.8838 53.056 13.9643 53.0442 14.0447L52.3814 18.2556C52.3719 18.3124 52.3258 18.3562 52.269 18.3598C52.1968 18.3657 51.3186 18.3704 49.631 18.3716C47.9445 18.374 47.0652 18.3716 46.9941 18.3669C46.9373 18.3621 46.89 18.3195 46.8817 18.2615L46.2083 14.053C46.1965 13.9725 46.232 13.8921 46.2994 13.8471C47.0663 13.3394 48.1492 12.6328 49.5493 11.7263C49.5694 11.7132 49.5943 11.7061 49.6239 11.7061Z" fill="#4F46E5"/>
<path d="M49.6416 20.3255C52.4086 20.3255 53.6299 20.3682 55.2395 20.2628C55.2999 20.2593 55.3602 20.2711 55.4146 20.2983C55.5839 20.3824 55.7697 20.5125 55.9709 20.6901C57.6006 22.1316 59.0492 23.3979 60.3167 24.4903C60.9451 25.0311 61.5298 25.4797 62.0718 25.8347C63.7287 26.9212 65.5264 28.1058 67.4532 29.0562C70.1196 30.3699 71.8274 31.2137 72.5789 31.5865C72.6179 31.6054 72.6191 31.6611 72.5812 31.6824C71.0048 32.5735 69.6332 33.3369 68.4651 33.9701C68.0556 34.1914 67.8248 34.273 67.3384 34.2837C61.454 34.4044 54.5602 34.3239 49.6439 34.3251C44.7277 34.3251 37.8338 34.408 31.9495 34.2884C31.4631 34.279 31.2323 34.1973 30.8228 33.976C29.6547 33.3428 28.2818 32.5806 26.7054 31.6895C26.6675 31.667 26.6687 31.6125 26.7078 31.5936C27.4593 31.2196 29.1671 30.3758 31.8323 29.0609C33.759 28.1106 35.5568 26.9247 37.2137 25.8383C37.7557 25.4832 38.3404 25.0347 38.9676 24.4938C40.2351 23.4015 41.6825 22.1339 43.3122 20.6924C43.5134 20.5149 43.6992 20.3835 43.8685 20.2995C43.9229 20.2723 43.9833 20.2605 44.0436 20.2652C45.6544 20.3693 46.8745 20.3255 49.6416 20.3255ZM33.5626 31.5451H65.6164C65.6744 31.5451 65.6957 31.4705 65.6471 31.4398C64.5938 30.7829 63.7346 30.2255 63.0707 29.7698C62.0197 29.0467 60.6552 28.0265 58.977 26.7105C58.0598 25.9909 56.4561 24.8856 54.8785 23.6488C54.7969 23.5849 54.6951 23.5494 54.5909 23.5482C52.0239 23.5174 48.8356 23.5091 45.0247 23.5234C44.8188 23.5245 44.5857 23.5115 44.4306 23.6322C43.1477 24.6311 41.6056 25.6903 40.3996 26.6253C39.3676 27.4253 38.1759 28.3153 36.8231 29.2964C35.7023 30.1083 34.726 30.6764 33.5377 31.4611C33.4999 31.4859 33.5176 31.5451 33.5626 31.5451Z" fill="#4F46E5"/>
<path d="M49.6495 36.8542C55.0947 36.8519 60.25 36.8495 65.1189 36.8767C65.4941 36.8791 65.7178 36.9477 66.0385 37.1702C69.4387 39.5195 73.1821 41.9918 77.2687 44.5872C78.3409 45.2689 79.2724 45.8145 80.5103 46.3909C82.8311 47.4702 84.3223 48.1614 84.9815 48.4655C85.004 48.4762 85.0064 48.5081 84.9851 48.5211C83.1661 49.7224 81.5044 50.8159 80.0002 51.8006C79.8783 51.8799 79.7197 51.9166 79.5268 51.9107C77.6806 51.8503 75.8166 51.8231 73.936 51.829C72.5513 51.8326 64.4586 51.8373 49.6554 51.842C34.8522 51.8479 26.7583 51.8491 25.3748 51.8456C23.493 51.842 21.6302 51.8704 19.784 51.932C19.5899 51.9391 19.4325 51.9024 19.3106 51.8219C17.8052 50.8384 16.1435 49.7472 14.3233 48.546C14.302 48.533 14.3044 48.5022 14.3269 48.4904C14.9861 48.1862 16.4761 47.4939 18.7957 46.4133C20.0337 45.8358 20.9651 45.289 22.0362 44.6073C26.1216 42.0095 29.8638 39.5337 33.2616 37.1821C33.5823 36.9596 33.806 36.8909 34.18 36.8874C39.0501 36.8578 44.2054 36.8554 49.6495 36.8542ZM49.6601 48.159C64.1733 48.1602 73.3218 48.1673 77.1042 48.1827C77.2214 48.1827 77.3444 48.1969 77.4758 48.2253C77.5184 48.2347 77.5563 48.1957 77.5456 48.1531C77.5445 48.1495 77.5421 48.1389 77.5385 48.1223C77.5338 48.101 77.5196 48.0833 77.5019 48.0714C72.6176 44.9742 68.1842 42.1267 64.2029 39.5289C64.0313 39.4165 63.8633 39.3597 63.6999 39.3585C60.8039 39.3455 56.1232 39.3372 49.6601 39.3372C43.1971 39.336 38.5175 39.3431 35.6215 39.3573C35.4582 39.3573 35.2901 39.4141 35.1173 39.5266C31.1361 42.1232 26.7027 44.9707 21.8172 48.0667C21.7995 48.0785 21.7864 48.0963 21.7805 48.1176C21.777 48.1341 21.7746 48.1448 21.7734 48.1483C21.7628 48.1909 21.8006 48.23 21.8432 48.2205C21.9746 48.1921 22.0977 48.1779 22.2149 48.1779C25.9973 48.1637 35.1457 48.1578 49.6601 48.159Z" fill="#4F46E5"/>
<path d="M20.4293 87.6203C20.3949 87.6215 20.3701 87.5895 20.3772 87.5564L27.8888 55.215C27.8983 55.1748 27.9338 55.1452 27.9764 55.1452H30.9789C31.0358 55.1452 31.0784 55.1973 31.0677 55.2529L27.4379 73.5698C27.4273 73.6231 27.4675 73.6716 27.522 73.6716H71.8427C71.903 73.6716 71.9468 73.6172 71.935 73.558L68.1928 55.1629C68.188 55.1381 68.207 55.1156 68.2318 55.1156H71.361C71.4107 55.1156 71.4545 55.1499 71.4651 55.1984L78.9697 87.444C78.9803 87.4889 78.946 87.5327 78.8999 87.5339C77.3424 87.5505 75.8855 87.554 74.528 87.5445C74.3375 87.5434 74.1777 87.4877 74.0487 87.3789C70.0497 83.9751 66.0057 80.6507 61.9179 77.4067C61.8753 77.3736 61.6812 77.2316 61.3368 76.9807C61.2847 76.9428 61.222 76.9215 61.1581 76.9215H38.2243C38.106 76.9215 37.99 76.9606 37.8953 77.0316C37.4432 77.3689 37.1994 77.5511 37.1639 77.5795C32.6465 81.2058 28.7291 84.4402 25.413 87.283C25.0567 87.5883 24.8295 87.5611 24.3253 87.567C21.9098 87.6002 20.6115 87.6179 20.4293 87.6203ZM25.5952 83.6367C25.7633 83.5372 26.0023 83.3325 26.3124 83.0236C28.1208 81.2129 30.0913 79.2305 32.2263 77.073C32.2536 77.0458 32.2334 76.9984 32.1944 76.9984L26.9977 77.0233C26.9338 77.0233 26.8793 77.0694 26.8675 77.1322L25.5787 83.6236C25.5775 83.6343 25.5869 83.6414 25.5952 83.6367ZM73.7919 83.6852C73.8002 83.6899 73.8108 83.6816 73.8085 83.6722L72.4711 77.1014C72.4593 77.0387 72.4037 76.9925 72.3386 76.9925H67.0744C67.0341 76.9925 67.014 77.0398 67.0424 77.0683C69.2153 79.2423 71.2225 81.2424 73.0629 83.0674C73.3777 83.3787 73.6203 83.5846 73.7919 83.6852Z" fill="#4F46E5"/>
<path d="M49.676 55.9559C58.1427 55.9488 62.9821 55.9476 64.1963 55.9488C64.2567 55.9499 64.3088 55.9914 64.3218 56.0494L67.748 71.2419C67.7586 71.2916 67.722 71.3378 67.6711 71.3378H56.3426C56.3 71.3378 56.2657 71.3034 56.2657 71.2608V59.3205C56.2657 59.2803 56.2326 59.2472 56.1923 59.2484C56.0633 59.2507 53.8928 59.2531 49.6784 59.2566C45.464 59.259 43.2922 59.2602 43.1632 59.2578C43.123 59.2566 43.0899 59.2898 43.0899 59.33L43.1076 71.2703C43.1076 71.3129 43.0733 71.3472 43.0307 71.3472L31.7023 71.3638C31.6526 71.3638 31.6147 71.3176 31.6253 71.2679L35.0291 56.0707C35.0421 56.0127 35.0942 55.9712 35.1545 55.9701C36.3688 55.9665 41.2093 55.9618 49.676 55.9559Z" fill="#4F46E5"/>
</svg>
